<svg id="svg" version="1.1" xmlns="http://www.w3.org/2000/svg" xmlns:xlink="http://www.w3.org/1999/xlink" width="400" height="400" viewBox="0, 0, 400,400"><g id="svgg"><path id="path0" d="M201.783 129.545 C 200.842 130.585,199.540 150.451,200.267 152.680 C 200.503 153.403,201.310 154.420,202.839 155.919 L 205.067 158.105 205.067 171.879 L 205.067 185.653 203.832 184.011 C 198.058 176.329,186.114 174.159,177.525 179.232 C 162.783 187.940,162.333 213.460,176.757 222.791 C 185.819 228.653,197.614 226.588,203.915 218.037 L 205.067 216.475 205.067 219.991 L 205.067 223.508 205.846 224.287 C 207.226 225.667,209.682 225.379,210.531 223.739 C 210.883 223.056,210.933 218.930,210.933 190.496 L 210.933 158.033 212.829 156.283 C 216.310 153.069,216.625 150.801,215.366 138.000 C 215.150 135.800,214.895 133.080,214.799 131.956 C 214.603 129.643,214.150 128.969,212.890 129.113 L 212.133 129.200 212.133 137.867 C 212.133 147.039,212.113 147.200,210.971 147.200 C 209.609 147.200,209.600 147.144,209.596 138.547 C 209.592 129.666,209.527 129.259,208.086 129.118 C 206.454 128.959,206.400 129.256,206.400 138.406 C 206.400 147.161,206.394 147.200,205.023 147.200 C 203.875 147.200,203.830 146.822,203.895 137.869 C 203.940 131.697,203.874 129.419,203.645 129.273 C 203.098 128.925,202.229 129.052,201.783 129.545 M373.896 156.639 C 372.545 157.387,372.553 157.301,372.543 171.960 L 372.533 185.653 371.299 184.011 C 365.524 176.329,353.580 174.159,344.992 179.232 C 330.250 187.940,329.800 213.460,344.224 222.791 C 353.286 228.653,365.080 226.588,371.382 218.037 L 372.533 216.475 372.533 219.991 L 372.533 223.508 373.313 224.287 C 374.693 225.667,377.149 225.379,377.997 223.739 C 378.350 223.057,378.400 218.933,378.400 190.520 L 378.400 158.080 377.493 157.173 C 376.491 156.171,375.111 155.966,373.896 156.639 M40.787 156.802 C 33.374 157.965,30.933 161.837,30.933 172.437 L 30.933 178.362 26.954 178.447 C 22.220 178.550,21.600 178.845,21.600 180.997 C 21.600 183.521,22.534 184.000,27.458 184.000 L 30.933 184.000 30.933 203.729 L 30.933 223.458 31.672 224.285 C 32.483 225.193,34.277 225.437,35.465 224.801 C 36.800 224.086,36.800 224.090,36.800 203.342 L 36.800 184.000 42.009 184.000 C 48.730 184.000,49.600 183.679,49.600 181.200 C 49.600 178.689,48.830 178.400,42.133 178.400 L 36.772 178.400 36.853 172.325 C 36.980 162.761,38.916 160.608,45.799 162.378 C 48.337 163.031,49.065 162.929,50.029 161.784 C 52.618 158.707,47.214 155.794,40.787 156.802 M129.361 169.743 C 127.682 171.655,128.872 174.667,131.307 174.667 C 132.497 174.667,132.810 176.150,131.667 176.374 C 118.514 178.940,111.066 188.032,111.111 201.467 C 111.206 229.987,150.127 235.822,157.357 208.400 C 159.226 201.313,157.890 192.733,153.987 186.745 L 152.518 184.492 153.436 183.241 C 153.941 182.553,154.604 181.765,154.909 181.489 C 156.885 179.700,155.602 176.258,152.964 176.273 C 151.677 176.280,151.204 176.629,149.615 178.742 C 148.159 180.677,148.155 180.680,147.223 180.017 C 145.104 178.507,141.436 177.109,137.667 176.374 C 136.545 176.155,136.832 174.667,137.996 174.667 C 140.416 174.667,141.614 171.424,139.868 169.601 L 139.100 168.800 134.644 168.800 L 130.189 168.800 129.361 169.743 M74.000 176.958 C 52.849 181.583,48.999 213.062,68.314 223.451 C 74.170 226.602,82.363 226.958,88.667 224.337 C 107.480 216.514,107.843 187.288,89.236 178.514 C 85.307 176.662,78.524 175.969,74.000 176.958 M294.430 177.065 C 272.367 183.001,272.378 219.377,294.445 225.510 C 301.835 227.564,310.989 224.477,315.566 218.389 L 316.800 216.747 316.800 220.127 L 316.800 223.508 317.579 224.287 C 318.959 225.667,321.415 225.379,322.264 223.739 C 322.738 222.821,322.883 180.605,322.416 179.376 C 321.973 178.209,321.075 177.600,319.799 177.600 C 317.360 177.600,316.803 178.522,316.792 182.587 L 316.783 185.467 316.214 184.667 C 311.630 178.225,302.265 174.956,294.430 177.065 M244.642 177.328 C 239.678 178.031,234.698 180.812,232.113 184.323 L 230.976 185.868 230.888 182.378 L 230.800 178.888 229.929 178.111 C 228.654 176.972,227.194 177.020,225.973 178.240 L 225.067 179.147 225.067 210.629 C 225.067 239.128,225.026 242.145,224.641 242.456 C 224.407 242.645,223.927 243.065,223.575 243.388 C 223.222 243.711,222.933 243.896,222.933 243.798 C 222.933 242.911,220.134 247.141,219.270 249.333 C 216.261 256.968,221.629 270.133,227.750 270.133 C 236.225 270.133,240.655 251.659,233.809 244.866 C 233.181 244.242,232.217 243.360,231.668 242.906 C 231.118 242.451,230.728 241.984,230.800 241.867 C 230.872 241.750,230.935 236.115,230.939 229.345 L 230.946 217.035 231.989 218.355 C 243.118 232.433,265.264 225.927,269.075 207.460 C 272.673 190.029,260.548 175.077,244.642 177.328 M84.757 182.749 C 93.632 185.835,98.823 195.838,96.710 205.781 C 92.349 226.300,64.887 225.126,61.853 204.291 C 59.790 190.123,72.253 178.401,84.757 182.749 M134.294 182.867 C 134.210 183.417,133.895 186.207,133.594 189.067 C 133.293 191.927,132.871 195.792,132.657 197.656 C 132.132 202.211,132.140 202.314,133.046 203.221 C 133.978 204.152,135.088 204.241,136.077 203.463 C 137.047 202.700,137.145 201.844,136.688 198.105 C 136.466 196.287,136.098 192.640,135.872 190.000 C 135.645 187.360,135.382 184.434,135.289 183.498 L 135.119 181.795 136.693 181.985 C 149.889 183.580,156.675 199.990,149.295 212.460 C 143.837 221.681,130.381 223.341,122.678 215.744 C 111.951 205.166,116.851 185.306,130.933 182.281 C 134.047 181.613,134.474 181.687,134.294 182.867 M192.069 182.258 C 203.212 184.619,208.845 199.553,203.047 211.361 C 196.651 224.385,178.982 223.437,173.513 209.775 C 167.636 195.096,178.266 179.333,192.069 182.258 M303.802 182.258 C 319.364 185.556,321.980 211.637,307.476 218.897 C 295.741 224.770,283.906 215.894,283.881 201.200 C 283.859 188.346,292.729 179.911,303.802 182.258 M359.535 182.258 C 370.679 184.619,376.312 199.553,370.514 211.361 C 364.118 224.385,346.449 223.437,340.980 209.775 C 335.103 195.096,345.732 179.333,359.535 182.258 M251.077 183.071 C 268.117 187.402,268.301 215.436,251.319 219.859 C 236.590 223.696,225.329 206.505,232.731 191.482 C 235.929 184.990,244.026 181.278,251.077 183.071 " stroke="none" fill="#000000" fill-rule="evenodd"></path></g></svg>