<svg id="svg" version="1.1" xmlns="http://www.w3.org/2000/svg" xmlns:xlink="http://www.w3.org/1999/xlink" width="400" height="400" viewBox="0, 0, 400,400"><g id="svgg"><path id="path0" d="M201.795 130.066 C 200.843 131.117,199.533 150.963,200.267 153.214 C 200.503 153.936,201.310 154.953,202.839 156.453 L 205.067 158.639 205.067 172.583 L 205.067 186.526 204.166 185.189 C 199.676 178.521,189.798 175.338,181.728 177.957 C 163.280 183.944,160.614 213.588,177.610 223.751 C 186.562 229.104,198.592 226.483,204.246 217.947 L 205.025 216.772 205.112 220.408 L 205.200 224.045 206.071 224.823 C 207.276 225.898,208.725 225.898,209.929 224.822 L 210.800 224.044 210.933 191.208 L 211.067 158.371 212.880 156.750 C 213.989 155.759,214.962 154.600,215.386 153.765 L 216.078 152.400 215.910 147.333 C 215.817 144.547,215.625 141.187,215.483 139.867 C 215.341 138.547,215.092 135.908,214.930 134.004 C 214.607 130.212,214.343 129.600,213.025 129.600 L 212.267 129.600 212.267 138.151 C 212.267 147.312,212.210 147.733,210.977 147.733 C 209.608 147.733,209.600 147.683,209.596 139.080 C 209.592 130.199,209.527 129.793,208.086 129.652 C 206.454 129.492,206.400 129.789,206.400 138.939 C 206.400 147.688,206.393 147.733,205.029 147.733 C 203.894 147.733,203.875 147.595,203.733 138.400 L 203.600 129.733 202.919 129.654 C 202.515 129.607,202.058 129.774,201.795 130.066 M373.505 157.767 L 372.805 158.468 372.736 172.608 L 372.667 186.748 371.251 184.843 C 366.112 177.933,356.138 175.205,348.011 178.487 C 329.811 185.839,328.845 215.852,346.533 224.396 C 355.470 228.712,365.730 226.133,371.433 218.138 L 372.667 216.408 372.800 220.311 C 372.967 225.190,373.892 226.428,376.548 225.327 C 378.245 224.624,378.133 227.028,378.133 191.253 L 378.133 158.626 377.354 157.846 C 376.283 156.776,374.533 156.740,373.505 157.767 M39.600 157.690 C 33.073 159.346,31.170 162.674,30.996 172.733 L 30.885 179.200 26.976 179.208 C 22.899 179.217,22.516 179.311,21.910 180.449 C 21.357 181.489,21.535 182.643,22.379 183.487 L 23.159 184.267 27.046 184.267 L 30.933 184.267 30.933 204.027 L 30.933 223.787 31.840 224.693 C 33.070 225.923,34.601 225.973,35.754 224.821 L 36.533 224.041 36.533 204.154 L 36.533 184.267 42.287 184.267 L 48.041 184.267 48.821 183.487 C 49.885 182.423,49.885 181.128,48.822 179.938 L 48.044 179.067 42.289 178.977 L 36.533 178.888 36.537 173.777 C 36.546 163.789,39.002 160.832,45.678 162.772 C 49.004 163.739,50.643 162.827,50.417 160.133 C 50.239 158.021,43.921 156.593,39.600 157.690 M129.361 170.276 C 127.682 172.188,128.872 175.200,131.307 175.200 C 132.497 175.200,132.810 176.684,131.667 176.907 C 116.431 179.880,107.791 194.079,111.992 209.240 C 117.745 230.000,145.910 232.914,155.426 213.733 C 159.737 205.044,158.827 193.657,153.238 186.335 L 152.355 185.178 153.263 183.989 C 153.763 183.335,154.465 182.491,154.824 182.113 C 156.821 180.013,155.692 176.791,152.964 176.806 C 151.677 176.813,151.204 177.162,149.615 179.275 C 148.977 180.123,148.364 180.873,148.252 180.942 C 148.140 181.012,146.830 180.415,145.340 179.616 C 142.539 178.115,140.902 177.482,139.067 177.190 C 137.194 176.892,137.067 176.815,137.067 175.982 C 137.067 175.267,137.146 175.200,137.996 175.200 C 140.416 175.200,141.614 171.958,139.868 170.135 L 139.100 169.333 134.644 169.333 L 130.189 169.333 129.361 170.276 M74.667 177.451 C 60.623 180.421,52.578 195.381,57.113 210.091 C 64.078 232.679,96.144 231.769,102.045 208.816 C 106.760 190.478,92.160 173.752,74.667 177.451 M295.257 177.487 C 281.533 180.493,274.153 197.388,279.983 212.456 C 286.016 228.045,306.085 231.510,315.619 218.607 L 316.747 217.080 316.840 220.562 L 316.933 224.044 317.804 224.822 C 319.020 225.908,320.533 225.908,321.621 224.821 L 322.400 224.041 322.400 201.875 L 322.400 179.709 321.756 179.065 C 319.207 176.516,316.979 178.415,316.844 183.252 L 316.754 186.467 316.157 185.479 C 312.451 179.339,303.111 175.767,295.257 177.487 M245.467 177.910 C 240.059 178.374,234.568 181.454,231.520 185.733 L 230.950 186.533 230.942 183.525 C 230.936 181.545,230.804 180.206,230.554 179.609 C 229.618 177.369,226.380 177.372,225.443 179.614 C 225.120 180.388,225.063 185.244,225.069 211.527 C 225.074 236.202,225.007 242.592,224.738 242.848 C 223.546 243.983,222.933 244.486,222.933 244.331 C 222.933 243.444,220.134 247.674,219.270 249.867 C 216.261 257.501,221.629 270.667,227.750 270.667 C 236.225 270.667,240.655 252.192,233.809 245.399 C 233.181 244.776,232.209 243.886,231.649 243.423 C 230.858 242.768,230.664 242.446,230.781 241.980 C 230.864 241.650,230.935 235.947,230.939 229.307 C 230.946 218.085,230.977 217.279,231.378 217.883 C 240.498 231.604,262.087 227.858,267.995 211.530 C 274.359 193.941,262.630 176.438,245.467 177.910 M361.449 183.170 C 377.579 188.851,376.591 216.591,360.108 220.807 C 348.061 223.887,337.700 212.845,339.459 198.800 C 340.957 186.839,351.198 179.560,361.449 183.170 M83.467 182.815 C 93.291 185.124,99.336 196.452,96.549 207.333 C 91.650 226.463,65.922 225.571,61.984 206.135 C 59.115 191.975,70.385 179.741,83.467 182.815 M134.294 183.400 C 134.210 183.950,133.895 186.740,133.594 189.600 C 133.293 192.460,132.871 196.325,132.657 198.189 C 132.132 202.744,132.140 202.847,133.046 203.754 C 133.978 204.685,135.088 204.774,136.077 203.997 C 137.047 203.233,137.145 202.377,136.688 198.638 C 136.466 196.821,136.098 193.173,135.872 190.533 C 135.645 187.893,135.384 184.983,135.293 184.067 L 135.126 182.400 135.897 182.405 C 150.829 182.494,158.081 204.891,146.822 216.149 C 136.461 226.511,119.380 220.282,117.040 205.288 C 115.237 193.743,123.195 182.543,133.290 182.415 L 134.447 182.400 134.294 183.400 M192.054 182.697 C 201.848 184.753,207.720 196.569,204.673 208.090 C 199.856 226.304,176.155 225.276,172.389 206.690 C 169.481 192.342,179.540 180.069,192.054 182.697 M304.386 182.808 C 312.804 185.000,318.287 194.283,317.102 204.333 C 314.429 226.996,286.230 226.956,283.735 204.285 C 282.215 190.465,292.543 179.723,304.386 182.808 M251.344 183.613 C 266.257 187.484,268.816 211.796,255.067 218.977 C 242.943 225.310,230.544 216.726,230.544 202.000 C 230.544 189.073,240.040 180.678,251.344 183.613 " stroke="none" fill="#fcfcfc" fill-rule="evenodd"></path><path id="path1" d="M372.657 173.067 C 372.657 180.620,372.691 183.710,372.733 179.933 C 372.775 176.157,372.775 169.977,372.733 166.200 C 372.691 162.423,372.657 165.513,372.657 173.067 M25.667 179.131 C 26.657 179.182,28.277 179.182,29.267 179.131 C 30.257 179.080,29.447 179.038,27.467 179.038 C 25.487 179.038,24.677 179.080,25.667 179.131 M322.527 201.867 C 322.527 213.673,322.560 218.503,322.600 212.600 C 322.640 206.697,322.640 197.037,322.600 191.133 C 322.560 185.230,322.527 190.060,322.527 201.867 M277.929 200.533 C 277.929 201.047,277.983 201.257,278.050 201.000 C 278.118 200.743,278.118 200.323,278.050 200.067 C 277.983 199.810,277.929 200.020,277.929 200.533 M283.547 201.600 C 283.547 202.407,283.597 202.737,283.658 202.333 C 283.719 201.930,283.719 201.270,283.658 200.867 C 283.597 200.463,283.547 200.793,283.547 201.600 M333.667 201.733 C 333.670 202.320,333.725 202.529,333.789 202.197 C 333.852 201.865,333.850 201.385,333.783 201.130 C 333.716 200.875,333.664 201.147,333.667 201.733 M372.637 219.867 C 372.637 221.773,372.680 222.518,372.731 221.522 C 372.783 220.526,372.782 218.966,372.730 218.056 C 372.679 217.145,372.636 217.960,372.637 219.867 M355.000 226.584 C 355.257 226.651,355.677 226.651,355.933 226.584 C 356.190 226.517,355.980 226.462,355.467 226.462 C 354.953 226.462,354.743 226.517,355.000 226.584 " stroke="none" fill="#f4f4f4" fill-rule="evenodd"></path><path id="path2" d="M43.000 157.250 C 43.257 157.318,43.677 157.318,43.933 157.250 C 44.190 157.183,43.980 157.129,43.467 157.129 C 42.953 157.129,42.743 157.183,43.000 157.250 M36.644 174.000 C 36.645 176.787,36.684 177.890,36.732 176.453 C 36.780 175.015,36.780 172.735,36.732 171.386 C 36.684 170.037,36.644 171.213,36.644 174.000 M378.259 187.867 C 378.259 197.253,378.292 201.055,378.333 196.314 C 378.374 191.573,378.374 183.893,378.333 179.247 C 378.292 174.601,378.259 178.480,378.259 187.867 M233.183 183.533 L 232.400 184.400 233.267 183.617 C 233.743 183.186,234.133 182.796,234.133 182.750 C 234.133 182.544,233.913 182.725,233.183 183.533 M25.667 184.464 C 26.657 184.516,28.277 184.516,29.267 184.464 C 30.257 184.413,29.447 184.371,27.467 184.371 C 25.487 184.371,24.677 184.413,25.667 184.464 M36.656 184.600 C 36.586 184.783,36.561 193.513,36.599 204.000 L 36.670 223.067 36.735 203.808 L 36.800 184.549 40.200 184.466 L 43.600 184.383 40.192 184.325 C 37.667 184.282,36.750 184.353,36.656 184.600 M44.461 184.459 C 44.934 184.518,45.774 184.519,46.327 184.461 C 46.881 184.404,46.493 184.355,45.467 184.354 C 44.440 184.353,43.987 184.400,44.461 184.459 M339.276 201.733 C 339.278 202.467,339.330 202.735,339.391 202.330 C 339.453 201.924,339.451 201.324,339.388 200.996 C 339.324 200.668,339.274 201.000,339.276 201.733 M317.129 201.867 C 317.129 202.380,317.183 202.590,317.250 202.333 C 317.318 202.077,317.318 201.657,317.250 201.400 C 317.183 201.143,317.129 201.353,317.129 201.867 M78.870 221.255 C 79.201 221.319,79.681 221.317,79.936 221.250 C 80.191 221.183,79.920 221.131,79.333 221.134 C 78.747 221.137,78.538 221.191,78.870 221.255 " stroke="none" fill="#ececec" fill-rule="evenodd"></path><path id="path3" d="M203.827 138.933 C 203.827 140.180,203.872 140.690,203.929 140.067 C 203.985 139.443,203.985 138.423,203.929 137.800 C 203.872 137.177,203.827 137.687,203.827 138.933 M378.206 159.733 C 378.206 160.393,378.258 160.663,378.322 160.333 C 378.385 160.003,378.385 159.463,378.322 159.133 C 378.258 158.803,378.206 159.073,378.206 159.733 M378.239 164.800 C 378.239 166.927,378.281 167.797,378.331 166.733 C 378.382 165.670,378.382 163.930,378.331 162.867 C 378.281 161.803,378.239 162.673,378.239 164.800 M369.600 182.800 C 370.098 183.313,370.565 183.733,370.638 183.733 C 370.711 183.733,370.364 183.313,369.867 182.800 C 369.369 182.287,368.902 181.867,368.829 181.867 C 368.755 181.867,369.102 182.287,369.600 182.800 M367.189 187.000 C 368.294 188.177,368.533 188.389,368.533 188.189 C 368.533 188.146,367.963 187.576,367.267 186.922 L 366.000 185.733 367.189 187.000 M310.667 186.217 C 310.667 186.263,311.057 186.653,311.533 187.083 L 312.400 187.867 311.617 187.000 C 310.887 186.192,310.667 186.011,310.667 186.217 M344.786 187.133 L 343.867 188.133 344.867 187.214 C 345.797 186.359,345.989 186.133,345.786 186.133 C 345.741 186.133,345.291 186.583,344.786 187.133 M372.883 201.733 C 372.884 202.613,372.934 202.941,372.993 202.462 C 373.053 201.983,373.051 201.263,372.991 200.862 C 372.930 200.461,372.881 200.853,372.883 201.733 M378.195 205.600 C 378.195 206.113,378.250 206.323,378.317 206.067 C 378.384 205.810,378.384 205.390,378.317 205.133 C 378.250 204.877,378.195 205.087,378.195 205.600 M378.206 207.733 C 378.206 208.393,378.258 208.663,378.322 208.333 C 378.385 208.003,378.385 207.463,378.322 207.133 C 378.258 206.803,378.206 207.073,378.206 207.733 M378.201 211.867 C 378.204 212.453,378.258 212.662,378.322 212.330 C 378.386 211.999,378.383 211.519,378.317 211.264 C 378.250 211.009,378.198 211.280,378.201 211.867 M378.233 215.867 C 378.234 217.480,378.278 218.106,378.331 217.257 C 378.384 216.408,378.383 215.088,378.330 214.324 C 378.276 213.559,378.232 214.253,378.233 215.867 M367.186 216.733 L 366.267 217.733 367.267 216.814 C 368.197 215.959,368.389 215.733,368.186 215.733 C 368.141 215.733,367.691 216.183,367.186 216.733 M369.324 220.733 L 367.867 222.267 369.400 220.809 C 370.825 219.455,371.055 219.200,370.858 219.200 C 370.816 219.200,370.126 219.890,369.324 220.733 M285.067 220.667 C 285.564 221.180,286.031 221.600,286.105 221.600 C 286.178 221.600,285.831 221.180,285.333 220.667 C 284.836 220.153,284.369 219.733,284.295 219.733 C 284.222 219.733,284.569 220.153,285.067 220.667 M313.852 220.733 L 312.933 221.733 313.933 220.814 C 314.483 220.309,314.933 219.859,314.933 219.814 C 314.933 219.611,314.708 219.803,313.852 220.733 M340.000 219.817 C 340.000 219.863,340.390 220.253,340.867 220.683 L 341.733 221.467 340.950 220.600 C 340.220 219.792,340.000 219.611,340.000 219.817 M355.405 221.260 C 355.884 221.319,356.604 221.318,357.005 221.257 C 357.405 221.196,357.013 221.148,356.133 221.149 C 355.253 221.151,354.925 221.201,355.405 221.260 " stroke="none" fill="#e1e1e1" fill-rule="evenodd"></path><path id="path4" d="" stroke="none" fill="#100f8fc" fill-rule="evenodd"></path></g></svg>